<?xml version="1.0" encoding="utf-8"?>
<!-- Generator: Adobe Illustrator 15.1.0, SVG Export Plug-In . SVG Version: 6.00 Build 0)  -->
<!DOCTYPE svg PUBLIC "-//W3C//DTD SVG 1.1//EN" "http://www.w3.org/Graphics/SVG/1.1/DTD/svg11.dtd">
<svg version="1.1" id="Layer_2" xmlns="http://www.w3.org/2000/svg" xmlns:xlink="http://www.w3.org/1999/xlink" x="0px" y="0px"
	 width="36px" height="36px" viewBox="0 0 36 36" enable-background="new 0 0 36 36" xml:space="preserve">
<g>
	<path fill="#FF6633" d="M36,0C26.25,0,13.434,0,4.191,0L0,4.021c0,4.73,0,9.462,0,14.146L4.51,23C0.856,23,3.651,23,0,23
		c0,4,0,8.5,0,13c9.24,0,22.402,0,31.619,0L36,31.649c0-4.437,0-9.536,0-13.973L31.496,14H36V0z M12,28h-2V9.147l2,4.116V28z
		 M14.604,17h1.424L9.991,7.052L21.207,19h-1.424l6.035,9.946L14.604,17z M26,26.631l-2-4.115V8h2V26.631z"/>
</g>
</svg>
